<svg width="196" height="67" viewBox="0 0 196 67" fill="none" xmlns="http://www.w3.org/2000/svg">
<g clip-path="url(#clip0_279_44211)">
<path d="M135.223 18.9512V49.121" stroke="white" stroke-width="0.37"/>
<mask id="mask0_279_44211" style="mask-type:luminance" maskUnits="userSpaceOnUse" x="0" y="0" width="196" height="67">
<path d="M196 0H0V67H196V0Z" fill="white"/>
</mask>
<g mask="url(#mask0_279_44211)">
<path d="M52.2732 55.8828C52.1041 55.6633 51.8759 55.41 51.673 55.1906C51.6561 55.1737 51.6477 55.1652 51.6477 55.1652L30.7856 34.4414C30.6673 34.5596 30.6081 34.6187 30.6081 34.6187C30.6081 34.6187 24.6318 40.0803 25.68 49.2646C25.68 49.2646 25.8913 53.0717 28.6216 56.1698C30.2362 57.4698 32.5438 57.4698 32.5438 57.4698H50.9376C51.0221 57.4698 51.132 57.4698 51.2335 57.4529C51.2757 57.4529 51.3264 57.4444 51.3772 57.436C52.8226 57.2081 52.6536 56.4568 52.2732 55.8828Z" fill="white"/>
<path d="M28.5286 33.9517C28.9597 33.4452 29.45 32.9134 29.45 32.9134C29.45 32.9134 46.6603 15.887 51.0136 11.5143C51.0305 11.4974 51.0474 11.4805 51.0559 11.4721C51.4363 11.0669 51.5124 10.7208 51.5124 10.5266C51.5124 10.4169 51.4955 10.3578 51.4785 10.3072C51.4363 10.189 51.3771 10.0877 51.2926 10.0033C51.1573 9.8682 50.9714 9.78378 50.7769 9.72469C50.5487 9.6656 50.2613 9.64028 50.0331 9.63184H49.8218H32.8735C32.5522 9.64028 32.2818 9.6656 32.0535 9.69093C29.1879 10.0877 27.1508 12.2909 27.1508 12.2909L12.637 26.8524C12.3749 27.131 12.0875 27.4433 11.8508 27.7304C6.62686 34.5511 12.2735 39.9452 12.2735 39.9452L27.6326 55.3087C27.6326 55.3087 28.182 55.832 28.6216 56.1697L28.6639 56.2035C28.1651 55.5788 27.7425 54.8444 27.3621 54.2282C21.5464 44.7484 26.7366 36.1803 28.5371 33.9433" fill="white"/>
<path d="M86.2799 46.4029L86.0939 46.3606C83.5665 45.7613 81.6899 43.8535 80.3374 42.2581C77.5818 38.9321 75.7052 36.5094 73.1946 32.6517C74.4457 31.1407 77.3451 27.4686 79.4668 24.7083C81.952 21.4921 82.6367 20.783 84.285 20.6226L84.5978 20.5888V18.9512L84.2343 18.9681C82.4422 19.0525 81.6308 19.0525 79.8472 19.0525C78.0636 19.0525 76.3814 19.0525 74.6317 18.9681L74.2682 18.9512V20.5973L74.5894 20.6141C76.8548 20.7661 77.0408 21.2219 77.0408 21.7706C77.0408 22.3615 75.9926 24.0583 73.9385 26.844C72.7128 28.5407 71.242 30.4569 69.6697 31.892C69.1457 32.3731 67.9622 33.0062 67.1677 33.1244L66.9648 33.1582L66.8718 33.1751C66.8718 33.1751 66.8295 33.1751 66.8126 33.1835V23.4505C66.8126 21.1628 67.2775 20.707 69.7374 20.6226H70.067V18.9512L69.712 18.9765C68.089 19.0609 65.2319 19.0609 63.7019 19.0609C62.1719 19.0609 59.4839 19.0609 57.8693 18.9765L57.5059 18.9512V20.6141H57.8355C60.2954 20.707 60.7603 21.1544 60.7603 23.4505V43.8451C60.7603 46.5464 60.0502 47.4243 57.844 47.458H57.5059V49.121H57.8609C59.4162 49.0704 62.0198 49.0197 63.7019 49.0197C65.3841 49.0197 68.368 49.0619 69.7205 49.1041H70.0755V47.4496H69.7374C67.2691 47.4074 66.8211 46.2003 66.8211 43.8366V34.2218C66.8211 34.2218 66.8633 34.2471 66.8887 34.2556L67.0324 34.3569C67.6157 34.7705 68.0383 35.3276 68.6638 36.29C68.9343 36.6867 69.2133 37.1172 69.5176 37.59C70.8616 39.6412 72.5438 42.1906 74.8007 45.0607C77.3958 48.3697 78.9681 49.3236 81.8083 49.3236C83.3552 49.3236 84.8514 48.6821 86.3898 47.3483L86.5673 47.1964L86.2968 46.4029H86.2799Z" fill="white"/>
<path d="M105.604 49.1129V47.4584H105.942C108.123 47.4162 108.858 46.5129 108.858 43.8876V23.493C108.858 21.3489 108.452 20.6736 105.933 20.5892H105.604V18.96L105.967 18.9853C107.59 19.0697 110.253 19.0697 111.85 19.0697C112.662 19.0697 113.794 19.0613 114.927 19.0444C116.06 19.0359 117.201 19.0191 118.013 19.0191C125.502 19.0191 128.697 21.2898 128.697 26.6164C128.697 29.5118 126.643 31.8079 123.118 32.9728C127.615 33.8338 130.236 36.5436 130.236 40.4182C130.236 46.2428 126.136 49.0623 117.7 49.0623C117.379 49.0623 116.669 49.0623 115.823 49.0454C114.564 49.0285 112.991 49.0116 111.935 49.0116C110.05 49.0116 107.607 49.0538 105.959 49.096H105.604V49.1129ZM114.919 46.0909C116.128 46.2344 116.871 46.3103 117.92 46.3103C121.935 46.3103 123.651 44.563 123.651 40.4604C123.651 37.5734 122.34 35.826 119.636 35.1254C118.731 34.8637 117.573 34.7455 115.984 34.7455H114.919V46.0993V46.0909ZM114.919 32.0274H116.077C117.438 32.0274 118.621 31.8839 119.492 31.6053C121.639 30.8371 122.552 29.4612 122.552 27.0131C122.552 24.5651 121.859 23.1638 120.236 22.3534C119.39 21.8892 117.666 21.6359 116.474 21.6359H114.927V32.0274H114.919Z" fill="white"/>
<path d="M101.36 49.121L101.005 49.1041C99.6607 49.0619 96.6177 49.0197 94.9862 49.0197C93.3548 49.0197 90.6921 49.0619 89.1452 49.1041L88.7902 49.121V47.458H89.1283C91.3345 47.4243 92.0446 46.5379 92.0446 43.8451V23.4505C92.0446 21.1628 91.5797 20.707 89.1198 20.6226H88.7902V18.9512L89.1536 18.9681C90.7682 19.0525 93.414 19.0525 94.9862 19.0525C96.5585 19.0525 99.3733 19.0525 100.996 18.9681L101.36 18.9512V20.6141H101.03C98.5703 20.6986 98.1054 21.1544 98.1054 23.4505V43.8451C98.1054 46.2087 98.5534 47.4158 101.022 47.458H101.36V49.121Z" fill="white"/>
<path d="M142.069 41.6416H140.421V49.1123H142.069V41.6416Z" fill="white"/>
<path d="M145.053 41.6421L148.181 46.6563H148.198V41.6421H149.736V49.1212H148.097L144.977 44.1154H144.96V49.1212H143.422V41.6421H145.053Z" fill="white"/>
<path d="M152.737 49.1207L150.319 41.6416H152.01L153.675 46.9006H153.692L155.383 41.6416H157.082L154.597 49.1207H152.737Z" fill="white"/>
<path d="M163.244 41.6421V43.0265H159.297V44.6304H162.923V45.905H159.297V47.7368H163.329V49.1212H157.648V41.6421H163.244Z" fill="white"/>
<path d="M165.603 47.2724C165.696 47.4497 165.814 47.5848 165.966 47.6945C166.118 47.8043 166.296 47.8802 166.499 47.9393C166.702 47.99 166.913 48.0153 167.124 48.0153C167.268 48.0153 167.429 48.0068 167.598 47.9815C167.767 47.9562 167.919 47.914 168.071 47.838C168.215 47.7705 168.341 47.6692 168.434 47.551C168.536 47.4244 168.578 47.2724 168.578 47.0867C168.578 46.8841 168.511 46.7237 168.384 46.5971C168.257 46.4705 168.088 46.3692 167.877 46.2848C167.665 46.2004 167.429 46.1244 167.167 46.0653C166.896 45.9978 166.634 45.9302 166.355 45.8543C166.076 45.7867 165.806 45.7023 165.535 45.601C165.265 45.4997 165.028 45.3647 164.825 45.2127C164.614 45.0523 164.445 44.8497 164.318 44.6134C164.191 44.3686 164.123 44.0816 164.123 43.7355C164.123 43.3556 164.208 43.0179 164.369 42.7394C164.529 42.4608 164.749 42.2244 165.011 42.0303C165.273 41.8446 165.577 41.7011 165.915 41.6082C166.254 41.5154 166.583 41.4731 166.921 41.4731C167.31 41.4731 167.691 41.5153 168.046 41.5998C168.401 41.6842 168.722 41.8277 169.001 42.0218C169.28 42.216 169.5 42.4692 169.669 42.7731C169.838 43.077 169.914 43.4484 169.914 43.879H168.316C168.299 43.651 168.257 43.4738 168.172 43.3218C168.088 43.1783 167.986 43.0601 167.851 42.9757C167.716 42.8913 167.564 42.8322 167.395 42.7985C167.226 42.7647 167.04 42.7478 166.837 42.7478C166.702 42.7478 166.566 42.7647 166.44 42.79C166.304 42.8153 166.186 42.866 166.076 42.9335C165.966 43.0011 165.882 43.0939 165.806 43.1952C165.738 43.2965 165.704 43.4316 165.704 43.592C165.704 43.7355 165.73 43.8536 165.789 43.9465C165.848 44.0394 165.958 44.1238 166.118 44.1997C166.279 44.2757 166.507 44.3517 166.803 44.4277C167.09 44.5036 167.471 44.6049 167.944 44.7231C168.079 44.7484 168.274 44.7991 168.527 44.8751C168.773 44.951 169.026 45.0692 169.263 45.2296C169.508 45.39 169.719 45.601 169.897 45.8712C170.074 46.1413 170.167 46.4874 170.167 46.901C170.167 47.2471 170.1 47.5594 169.973 47.8549C169.838 48.1504 169.643 48.4036 169.381 48.6146C169.119 48.8257 168.798 48.9945 168.409 49.1127C168.02 49.2309 167.572 49.2899 167.065 49.2899C166.651 49.2899 166.254 49.2393 165.865 49.138C165.476 49.0367 165.138 48.8763 164.833 48.6653C164.538 48.4458 164.301 48.1757 164.123 47.838C163.946 47.5004 163.861 47.1036 163.87 46.6478H165.467C165.467 46.901 165.51 47.1121 165.603 47.2893" fill="white"/>
<path d="M170.438 43.026V41.6416H176.574V43.026H174.326V49.1207H172.686V43.026H170.438Z" fill="white"/>
<path d="M145.78 28.237L146.457 27.5616C146.516 27.5026 146.55 27.4519 146.592 27.3928C146.617 27.4519 146.66 27.5026 146.719 27.5616L147.395 28.237L148.071 27.5616C148.198 27.435 148.249 27.3253 148.249 27.2155C148.249 27.0889 148.189 26.9792 148.071 26.8526L147.395 26.1772L146.719 26.8526C146.66 26.9117 146.626 26.9623 146.592 27.0214C146.55 26.9623 146.507 26.9117 146.457 26.8526L145.78 26.1772L145.121 26.8526C144.994 26.9792 144.927 27.0889 144.927 27.2155C144.927 27.3253 144.986 27.435 145.121 27.5616L145.78 28.237Z" fill="white"/>
<path d="M175.67 27.1393L176.346 26.464C176.473 26.3374 176.541 26.2276 176.541 26.1179C176.541 25.9913 176.473 25.8815 176.346 25.7549L175.67 25.0796L175.011 25.7549C174.884 25.8815 174.816 25.9913 174.816 26.1179C174.816 26.2276 174.876 26.3374 175.011 26.464L175.67 27.1393Z" fill="white"/>
<path d="M181.054 29.672V31.4953C181.054 32.5843 180.336 32.6434 179.288 32.6434H177.766C178.096 32.2297 178.307 31.6726 178.307 30.9213C178.307 29.4018 177.343 27.9668 175.67 27.9668C173.996 27.9668 173.032 29.4018 173.032 30.9213C173.032 31.681 173.252 32.2297 173.573 32.6434H171.705C171.705 32.6434 171.671 32.6434 171.655 32.6434C171.638 32.6434 171.621 32.6434 171.604 32.6434H171.536C170.86 32.6434 170.302 32.3395 170.302 31.5207V28.6759C169.448 28.5915 168.755 29.2668 168.755 30.2207V31.4869C168.755 32.3142 168.062 32.6349 167.36 32.6349C166.693 32.6349 166.016 32.3057 166.016 31.4869V28.6674C165.163 28.583 164.469 29.2583 164.469 30.2122V31.4785C164.469 32.3057 163.776 32.6265 163.075 32.6265C162.407 32.6265 161.731 32.2973 161.731 31.4785V28.659C160.877 28.5746 160.184 29.2499 160.184 30.2038V31.47C160.184 32.559 159.482 32.618 158.333 32.618H154.284C153.607 32.618 153.049 32.272 153.049 31.4953V28.6506C152.196 28.5661 151.503 29.2415 151.503 30.1953V31.4362C151.503 32.4323 149.795 32.7278 147.8 32.7447C147.733 32.7447 145.831 32.7447 145.763 32.7447C143.168 32.7447 141.714 32.331 141.714 30.7694C141.714 30.3811 141.773 30.1025 142.018 29.596C142.077 29.4609 142.086 29.3174 141.934 29.1993L141.088 28.4648C140.632 29.1317 140.243 30.035 140.243 30.7694C140.243 33.5044 142.703 34.2219 145.755 34.2219C145.822 34.2219 147.724 34.2219 147.792 34.2219C149.499 34.2135 151.173 34.07 152.153 33.2934C152.635 33.7914 153.354 34.0784 154.216 34.0784H158.51H158.527C159.491 34.0784 160.387 33.9012 160.987 33.3862C161.536 33.8589 162.297 34.0784 163.058 34.0784C163.861 34.0784 164.664 33.8589 165.23 33.3609C165.78 33.8421 166.557 34.0784 167.344 34.0784C168.13 34.0784 168.933 33.8589 169.499 33.3862C169.972 33.8252 170.657 34.0784 171.46 34.0784H171.595C171.595 34.0784 171.621 34.0784 171.638 34.0784C171.655 34.0784 171.663 34.0784 171.68 34.0784H172.483C173.768 34.0784 174.808 34.0193 175.644 33.8421C176.49 34.0193 177.538 34.0784 178.823 34.0784H179.321C181.037 34.0784 182.567 33.5804 182.567 31.5966V28.0934C181.714 28.009 181.029 28.6843 181.029 29.6382M175.67 32.5252C174.977 32.4323 174.436 31.8752 174.436 30.9635C174.436 30.0518 174.85 29.4272 175.67 29.4272C176.49 29.4272 176.912 30.0772 176.912 30.9635C176.912 31.8499 176.371 32.4239 175.67 32.5252Z" fill="white"/>
<path d="M181.833 25.105L181.156 25.7719C181.029 25.8985 180.979 26.0167 180.979 26.1264C180.979 26.253 181.038 26.3712 181.156 26.4894L181.833 27.1394L182.509 26.4894C182.636 26.3796 182.686 26.253 182.686 26.1433C182.686 26.0167 182.627 25.8985 182.509 25.7719L181.833 25.105Z" fill="white"/>
<path d="M186.102 32.4999V23.9824H185.949C185.163 23.9824 184.555 24.6493 184.555 25.5441V34.0447C184.614 34.0615 184.665 34.0615 184.724 34.0615C185.501 34.0615 186.11 33.3947 186.11 32.4999" fill="white"/>
<path d="M186.313 36.6952C186.253 36.7121 186.203 36.7205 186.152 36.7289C186.152 36.7289 186.135 36.7289 186.127 36.7289C185.991 36.7458 185.89 36.7458 185.814 36.7458C185.332 36.7458 185.053 36.4419 185.053 36.0958C185.053 35.64 185.467 35.4458 185.983 35.5978C186.093 35.64 186.16 35.5978 186.16 35.4627V34.8803C185.983 34.7705 185.729 34.7114 185.493 34.7114C184.639 34.7114 184.081 35.4121 184.081 36.1212C184.081 36.3406 184.14 36.5939 184.267 36.8218C184.157 36.8218 184.081 36.8218 184.03 36.8218C183.438 36.8218 183.438 37.4296 183.438 37.4633V37.5562H186.346C186.397 37.5562 186.456 37.5393 186.456 37.4465V36.788C186.456 36.6867 186.389 36.653 186.287 36.6783" fill="white"/>
</g>
</g>
<defs>
<clipPath id="clip0_279_44211">
<rect width="196" height="67" fill="white"/>
</clipPath>
</defs>
</svg>
