<svg width="303" height="31" viewBox="0 0 303 31" fill="none" xmlns="http://www.w3.org/2000/svg">
<g clip-path="url(#clip0_122_12050)">
<path d="M62.0925 8.76843V22.7276" stroke="white" stroke-width="0.171194"/>
<mask id="mask0_122_12050" style="mask-type:luminance" maskUnits="userSpaceOnUse" x="0" y="0" width="91" height="31">
<path d="M90.0014 0H0.00140381V31H90.0014V0Z" fill="white"/>
</mask>
<g mask="url(#mask0_122_12050)">
<path d="M24.0034 25.8562C23.9258 25.7546 23.821 25.6374 23.7278 25.5359C23.72 25.5281 23.7162 25.5242 23.7162 25.5242L14.1367 15.9355C14.0823 15.9902 14.0551 16.0176 14.0551 16.0176C14.0551 16.0176 11.3109 18.5446 11.7922 22.7941C11.7922 22.7941 11.8893 24.5556 13.143 25.989C13.8844 26.5905 14.944 26.5905 14.944 26.5905H23.3901C23.4289 26.5905 23.4794 26.5905 23.526 26.5826C23.5454 26.5826 23.5687 26.5787 23.592 26.5748C24.2557 26.4694 24.1781 26.1218 24.0034 25.8562Z" fill="white"/>
<path d="M13.1008 15.7094C13.2987 15.4751 13.5238 15.229 13.5238 15.229C13.5238 15.229 21.4265 7.35108 23.4255 5.32789C23.4333 5.32008 23.441 5.31227 23.4449 5.30836C23.6196 5.12089 23.6545 4.96075 23.6545 4.87092C23.6545 4.82014 23.6468 4.7928 23.639 4.76937C23.6196 4.71469 23.5924 4.66782 23.5536 4.62876C23.4915 4.56627 23.4061 4.52721 23.3168 4.49987C23.212 4.47253 23.0801 4.46081 22.9753 4.45691H22.8782H15.0958C14.9483 4.46081 14.8241 4.47253 14.7193 4.48425C13.4035 4.66782 12.4681 5.68722 12.4681 5.68722L5.80356 12.4247C5.68324 12.5535 5.55127 12.6981 5.44259 12.8309C3.04383 15.9867 5.63666 18.4825 5.63666 18.4825L12.6893 25.591C12.6893 25.591 12.9416 25.8331 13.1435 25.9894L13.1629 26.005C12.9339 25.7159 12.7398 25.3761 12.5651 25.091C9.89465 20.7049 12.2779 16.7405 13.1046 15.7055" fill="white"/>
<path d="M39.6188 21.4708L39.5334 21.4513C38.3728 21.174 37.5111 20.2913 36.8901 19.5531C35.6247 18.0142 34.763 16.8933 33.6102 15.1083C34.1847 14.4092 35.516 12.7102 36.4903 11.433C37.6314 9.94492 37.9458 9.61684 38.7027 9.54263L38.8463 9.527V8.76929L38.6794 8.7771C37.8566 8.81616 37.4839 8.81616 36.665 8.81616C35.846 8.81616 35.0735 8.81616 34.2701 8.7771L34.1032 8.76929V9.53091L34.2507 9.53872C35.2909 9.60902 35.3763 9.81994 35.3763 10.0738C35.3763 10.3472 34.895 11.1323 33.9518 12.4212C33.389 13.2062 32.7136 14.0928 31.9916 14.7568C31.751 14.9794 31.2076 15.2724 30.8427 15.3271L30.7496 15.3427L30.7069 15.3505C30.7069 15.3505 30.6875 15.3505 30.6797 15.3544V10.8511C30.6797 9.7926 30.8932 9.58168 32.0227 9.54263H32.1741V8.76929L32.0111 8.781C31.2658 8.82006 29.9539 8.82006 29.2513 8.82006C28.5488 8.82006 27.3145 8.82006 26.5731 8.781L26.4062 8.76929V9.53872H26.5576C27.6871 9.58168 27.9006 9.78869 27.9006 10.8511V20.2874C27.9006 21.5372 27.5745 21.9434 26.5614 21.959H26.4062V22.7285H26.5692C27.2834 22.705 28.4789 22.6816 29.2513 22.6816C30.0237 22.6816 31.3939 22.7011 32.0149 22.7207H32.178V21.9551H32.0227C30.8893 21.9356 30.6836 21.3771 30.6836 20.2835V15.8348C30.6836 15.8348 30.703 15.8465 30.7146 15.8504L30.7806 15.8973C31.0484 16.0887 31.2425 16.3465 31.5298 16.7917C31.654 16.9753 31.782 17.1745 31.9218 17.3932C32.5389 18.3423 33.3114 19.5218 34.3477 20.8498C35.5393 22.3809 36.2613 22.8222 37.5655 22.8222C38.2758 22.8222 38.9628 22.5254 39.6692 21.9083L39.7507 21.838L39.6265 21.4708H39.6188Z" fill="white"/>
<path d="M48.4918 22.7247V21.9592H48.6471C49.6485 21.9396 49.9862 21.5217 49.9862 20.307V10.8707C49.9862 9.87865 49.7999 9.56618 48.6432 9.52713H48.4918V8.77332L48.6587 8.78503C49.404 8.82409 50.6266 8.82409 51.3602 8.82409C51.7329 8.82409 52.253 8.82018 52.7731 8.81237C53.2932 8.80847 53.8172 8.80066 54.1898 8.80066C57.6288 8.80066 59.096 9.85131 59.096 12.3158C59.096 13.6555 58.1528 14.7179 56.5343 15.2569C58.5992 15.6553 59.8025 16.909 59.8025 18.7018C59.8025 21.3967 57.92 22.7012 54.0462 22.7012C53.8987 22.7012 53.5727 22.7012 53.1845 22.6934C52.6062 22.6856 51.8842 22.6778 51.3991 22.6778C50.5335 22.6778 49.4117 22.6973 48.6548 22.7169H48.4918V22.7247ZM52.7692 21.3264C53.3243 21.3928 53.6658 21.428 54.1471 21.428C55.9909 21.428 56.7788 20.6195 56.7788 18.7213C56.7788 17.3855 56.1772 16.577 54.9351 16.2528C54.5198 16.1318 53.988 16.0771 53.2583 16.0771H52.7692V21.3303V21.3264ZM52.7692 14.8194H53.301C53.9259 14.8194 54.4693 14.753 54.8691 14.6241C55.855 14.2687 56.2742 13.6321 56.2742 12.4994C56.2742 11.3667 55.9559 10.7184 55.2107 10.3434C54.8225 10.1286 54.0307 10.0114 53.4834 10.0114H52.7731V14.8194H52.7692Z" fill="white"/>
<path d="M46.5436 22.7285L46.3806 22.7207C45.7634 22.7011 44.3661 22.6816 43.617 22.6816C42.8679 22.6816 41.6452 22.7011 40.9349 22.7207L40.7719 22.7285V21.959H40.9271C41.9402 21.9434 42.2662 21.5333 42.2662 20.2874V10.8511C42.2662 9.7926 42.0527 9.58168 40.9232 9.54263H40.7719V8.76929L40.9388 8.7771C41.6801 8.81616 42.895 8.81616 43.617 8.81616C44.3389 8.81616 45.6315 8.81616 46.3767 8.7771L46.5436 8.76929V9.53872H46.3922C45.2627 9.57778 45.0492 9.78869 45.0492 10.8511V20.2874C45.0492 21.381 45.255 21.9395 46.3884 21.959H46.5436V22.7285Z" fill="white"/>
<path d="M65.2377 19.2675H64.4808V22.7241H65.2377V19.2675Z" fill="white"/>
<path d="M66.6075 19.2675L68.0436 21.5875H68.0514V19.2675H68.7578V22.728H68.0048L66.5725 20.4118H66.5648V22.728H65.8583V19.2675H66.6075Z" fill="white"/>
<path d="M70.1361 22.728L69.026 19.2675H69.8023L70.567 21.7007H70.5747L71.351 19.2675H72.1312L70.99 22.728H70.1361Z" fill="white"/>
<path d="M74.9605 19.2675V19.908H73.1478V20.6501H74.813V21.2399H73.1478V22.0874H74.9993V22.728H72.3909V19.2675H74.9605Z" fill="white"/>
<path d="M76.0424 21.8726C76.0851 21.9546 76.1395 22.0171 76.2093 22.0679C76.2792 22.1186 76.3607 22.1538 76.4539 22.1811C76.547 22.2046 76.6441 22.2163 76.7411 22.2163C76.8071 22.2163 76.8808 22.2124 76.9585 22.2007C77.0361 22.189 77.106 22.1694 77.1758 22.1343C77.2418 22.103 77.3 22.0562 77.3427 22.0015C77.3893 21.9429 77.4087 21.8726 77.4087 21.7867C77.4087 21.6929 77.3777 21.6187 77.3194 21.5601C77.2612 21.5015 77.1836 21.4547 77.0866 21.4156C76.9895 21.3766 76.8808 21.3414 76.7605 21.3141C76.6363 21.2828 76.516 21.2516 76.3879 21.2164C76.2598 21.1852 76.1356 21.1461 76.0114 21.0992C75.8872 21.0524 75.7785 20.9899 75.6853 20.9196C75.5883 20.8454 75.5107 20.7516 75.4524 20.6423C75.3942 20.529 75.3632 20.3962 75.3632 20.2361C75.3632 20.0603 75.402 19.9041 75.4757 19.7752C75.5495 19.6463 75.6504 19.5369 75.7707 19.4471C75.8911 19.3612 76.0308 19.2948 76.186 19.2518C76.3413 19.2089 76.4927 19.1893 76.6479 19.1893C76.8265 19.1893 77.0012 19.2089 77.1642 19.2479C77.3272 19.287 77.4747 19.3534 77.6028 19.4432C77.7309 19.533 77.8318 19.6502 77.9094 19.7908C77.9871 19.9314 78.022 20.1033 78.022 20.3025H77.2884C77.2806 20.197 77.2612 20.115 77.2224 20.0447C77.1836 19.9783 77.137 19.9236 77.0749 19.8846C77.0128 19.8455 76.9429 19.8182 76.8653 19.8025C76.7877 19.7869 76.7023 19.7791 76.6091 19.7791C76.547 19.7791 76.4849 19.7869 76.4267 19.7986C76.3646 19.8103 76.3103 19.8338 76.2598 19.865C76.2093 19.8963 76.1705 19.9392 76.1356 19.9861C76.1045 20.033 76.089 20.0955 76.089 20.1697C76.089 20.2361 76.1007 20.2908 76.1278 20.3337C76.155 20.3767 76.2055 20.4157 76.2792 20.4509C76.3529 20.486 76.4577 20.5212 76.5936 20.5563C76.7256 20.5915 76.9002 20.6384 77.1176 20.693C77.1797 20.7048 77.269 20.7282 77.3854 20.7634C77.498 20.7985 77.6144 20.8532 77.7231 20.9274C77.8357 21.0016 77.9327 21.0992 78.0142 21.2242C78.0957 21.3492 78.1384 21.5094 78.1384 21.7007C78.1384 21.8609 78.1074 22.0054 78.0492 22.1421C77.9871 22.2788 77.8978 22.396 77.7775 22.4936C77.6571 22.5912 77.5096 22.6694 77.3311 22.724C77.1525 22.7787 76.9468 22.8061 76.7139 22.8061C76.5237 22.8061 76.3413 22.7826 76.1628 22.7358C75.9842 22.6889 75.8289 22.6147 75.6892 22.517C75.5534 22.4155 75.4447 22.2905 75.3632 22.1343C75.2817 21.978 75.2428 21.7945 75.2467 21.5836H75.9803C75.9803 21.7007 75.9997 21.7984 76.0424 21.8804" fill="white"/>
<path d="M78.2634 19.908V19.2675H81.0814V19.908H80.0489V22.728H79.2959V19.908H78.2634Z" fill="white"/>
<path d="M66.9409 13.0651L67.2514 12.7526C67.2786 12.7253 67.2941 12.7018 67.3135 12.6745C67.3252 12.7018 67.3446 12.7253 67.3718 12.7526L67.6823 13.0651L67.9928 12.7526C68.051 12.694 68.0743 12.6432 68.0743 12.5925C68.0743 12.5339 68.0471 12.4831 67.9928 12.4245L67.6823 12.1121L67.3718 12.4245C67.3446 12.4519 67.3291 12.4753 67.3135 12.5026C67.2941 12.4753 67.2747 12.4519 67.2514 12.4245L66.9409 12.1121L66.6382 12.4245C66.5799 12.4831 66.5489 12.5339 66.5489 12.5925C66.5489 12.6432 66.5761 12.694 66.6382 12.7526L66.9409 13.0651Z" fill="white"/>
<path d="M80.6662 12.5571L80.9767 12.2447C81.0349 12.1861 81.066 12.1353 81.066 12.0845C81.066 12.0259 81.0349 11.9752 80.9767 11.9166L80.6662 11.6041L80.3634 11.9166C80.3052 11.9752 80.2742 12.0259 80.2742 12.0845C80.2742 12.1353 80.3013 12.1861 80.3634 12.2447L80.6662 12.5571Z" fill="white"/>
<path d="M83.138 13.7293V14.5729C83.138 15.0768 82.8081 15.1041 82.3268 15.1041H81.6281C81.7795 14.9127 81.8765 14.6549 81.8765 14.3073C81.8765 13.6043 81.434 12.9403 80.6655 12.9403C79.897 12.9403 79.4545 13.6043 79.4545 14.3073C79.4545 14.6588 79.5554 14.9127 79.7029 15.1041H78.8451C78.8451 15.1041 78.8296 15.1041 78.8218 15.1041C78.814 15.1041 78.8063 15.1041 78.7985 15.1041H78.7674C78.4569 15.1041 78.2008 14.9635 78.2008 14.5846V13.2684C77.8087 13.2293 77.4904 13.5418 77.4904 13.9831V14.569C77.4904 14.9518 77.1722 15.1002 76.85 15.1002C76.5434 15.1002 76.2328 14.9479 76.2328 14.569V13.2645C75.8408 13.2254 75.5225 13.5379 75.5225 13.9792V14.5651C75.5225 14.9479 75.2042 15.0963 74.8821 15.0963C74.5754 15.0963 74.2649 14.944 74.2649 14.5651V13.2606C73.8729 13.2215 73.5546 13.534 73.5546 13.9753V14.5612C73.5546 15.065 73.2325 15.0924 72.7046 15.0924H70.8453C70.5348 15.0924 70.2786 14.9322 70.2786 14.5729V13.2567C69.8866 13.2176 69.5683 13.5301 69.5683 13.9714V14.5456C69.5683 15.0065 68.7843 15.1432 67.8682 15.151C67.8372 15.151 66.9639 15.151 66.9328 15.151C65.7412 15.151 65.0736 14.9596 65.0736 14.237C65.0736 14.0574 65.1007 13.9285 65.2133 13.6941C65.2405 13.6316 65.2444 13.5652 65.1745 13.5105L64.7863 13.1707C64.5767 13.4793 64.3982 13.8972 64.3982 14.237C64.3982 15.5025 65.5277 15.8345 66.9289 15.8345C66.96 15.8345 67.8333 15.8345 67.8644 15.8345C68.6484 15.8306 69.417 15.7642 69.8672 15.4048C70.0884 15.6353 70.4184 15.7681 70.8143 15.7681H72.7861H72.7938C73.2363 15.7681 73.6478 15.6861 73.9234 15.4478C74.1757 15.6665 74.525 15.7681 74.8743 15.7681C75.2431 15.7681 75.6118 15.6665 75.8719 15.4361C76.1242 15.6587 76.4813 15.7681 76.8422 15.7681C77.2032 15.7681 77.572 15.6665 77.832 15.4478C78.0494 15.6509 78.3638 15.7681 78.7325 15.7681H78.7946C78.7946 15.7681 78.8063 15.7681 78.814 15.7681C78.8218 15.7681 78.8257 15.7681 78.8334 15.7681H79.2022C79.7922 15.7681 80.2696 15.7407 80.6538 15.6587C81.042 15.7407 81.5233 15.7681 82.1133 15.7681H82.3423C83.1302 15.7681 83.8328 15.5376 83.8328 14.6198V12.9989C83.4408 12.9598 83.1264 13.2723 83.1264 13.7136M80.6655 15.0494C80.3472 15.0065 80.0988 14.7487 80.0988 14.3269C80.0988 13.905 80.289 13.616 80.6655 13.616C81.042 13.616 81.2361 13.9167 81.2361 14.3269C81.2361 14.737 80.9877 15.0025 80.6655 15.0494Z" fill="white"/>
<path d="M83.4948 11.6158L83.1843 11.9244C83.1261 11.983 83.1028 12.0377 83.1028 12.0884C83.1028 12.147 83.13 12.2017 83.1843 12.2564L83.4948 12.5571L83.8053 12.2564C83.8636 12.2056 83.8868 12.147 83.8868 12.0963C83.8868 12.0377 83.8597 11.983 83.8053 11.9244L83.4948 11.6158Z" fill="white"/>
<path d="M85.4562 15.0384V11.0975H85.3863C85.0253 11.0975 84.7458 11.4061 84.7458 11.8201V15.7532C84.773 15.761 84.7963 15.761 84.8235 15.761C85.1806 15.761 85.46 15.4525 85.46 15.0384" fill="white"/>
<path d="M85.5525 16.9793C85.5253 16.9871 85.502 16.991 85.4787 16.9949C85.4787 16.9949 85.471 16.9949 85.4671 16.9949C85.405 17.0027 85.3584 17.0027 85.3235 17.0027C85.1022 17.0027 84.9742 16.8621 84.9742 16.7019C84.9742 16.491 85.1643 16.4012 85.4011 16.4715C85.4516 16.491 85.4826 16.4715 85.4826 16.409V16.1395C85.4011 16.0887 85.2847 16.0614 85.176 16.0614C84.784 16.0614 84.5278 16.3856 84.5278 16.7137C84.5278 16.8152 84.555 16.9324 84.6132 17.0378C84.5627 17.0378 84.5278 17.0378 84.5045 17.0378C84.2328 17.0378 84.2328 17.3191 84.2328 17.3347V17.3776H85.568C85.5913 17.3776 85.6185 17.3698 85.6185 17.3269V17.0222C85.6185 16.9753 85.5874 16.9597 85.5409 16.9714" fill="white"/>
</g>
</g>
<defs>
<clipPath id="clip0_122_12050">
<rect width="90" height="31" fill="white"/>
</clipPath>
</defs>
</svg>
